<svg xmlns="http://www.w3.org/2000/svg" xml:space="preserve" data-id="lg_YY27hSTVk3Pdql6UPW" data-version="1" viewBox="469 -0.5 562 128"><g data-padding="20"><g transform="translate(10 2.264)scale(.96435)"><rect width="421.055" height="72.32" x="156.574" y="-371.803" fill="none" rx="0" ry="0" transform="translate(469.98 402.81)"/><path fill="#FFF" d="m668.61 45.747 4.03 41.02h-4.61l-.96-12.48-2.17-20.41h-.45l-11.39 28.16h-4.23l-10.81-28.16h-.51l-2.18 20.03-1.09 12.86h-4.35l4.29-41.02H640l2.11 6.27 8.9 23.36h.38l9.35-23.74 2.11-5.89Zm28.74-.38q8.44 0 12.96 5.18 4.51 5.18 4.51 14.91 0 10.5-4.8 16.16-4.8 5.67-13.7 5.67-8.32 0-12.83-5.38t-4.51-15.3q0-10.24 4.77-15.74 4.76-5.5 13.6-5.5m-.32 4.16q-12.8 0-12.8 16.51 0 8.77 3.1 12.99t9.38 4.22q12.8 0 12.8-16.83 0-8.57-3.11-12.73-3.1-4.16-9.37-4.16m40.96-4.04q8.76 0 13.44 5 4.67 4.99 4.67 14.33 0 10.82-5.06 16.58-5.05 5.76-14.53 5.76-2.62 0-6.36-.1-3.75-.09-6.95-.29h-.06l.32-12.35-.32-28.67h.06Zm-.64 37.38q6.52 0 10.01-4.26 3.49-4.25 3.49-12.7 0-16.13-13.25-16.13-4.03 0-9.28.26l-.25 23.93.19 8.52q1.98.19 4.77.28 2.78.1 4.32.1m50.24-.58.32.52-.39 3.96h-23.04l.32-12.35-.32-28.67h23.11l.25.51-.38 3.97-9.67-.19-8.12.13-.13 13.44 7.68.12 6.78-.19.39.45-.45 3.97-7.17-.13-7.3.06-.06 6.08.19 8.52 8.13.06Zm27.84.2.38.44-.45 3.84h-20.22l.32-12.35-.32-28.67h5.25l-.32 28.22.19 8.52Zm43.13-36.74 4.03 41.02h-4.6l-.96-12.48-2.18-20.41h-.45l-11.39 28.16h-4.22l-10.82-28.16h-.51l-2.18 20.03-1.09 12.86h-4.35l4.29-41.02h5.82l2.12 6.27 8.89 23.36h.39l9.34-23.74 2.11-5.89Zm36.99 36.54.32.52-.38 3.96h-23.04l.32-12.35-.32-28.67h23.1l.26.51-.38 3.97-9.67-.19-8.13.13-.12 13.44 7.68.12 6.78-.19.38.45-.44 3.97-7.17-.13-7.3.06-.06 6.08.19 8.52 8.13.06Zm31.44-36.54.38.51-.38 3.97-7.17-.38h-4.16l-.19 24.12.19 12.8h-5.18l.38-12.35-.32-24.57h-4.16l-7.3.38-.32-.51.39-3.97Zm24.38 24.45q4.23 6.97 10.63 15.36l-.07.64q-2.3.89-4.73 1.15l-.71-.45q-5.25-7.87-9.41-15.36h-7.48v2.43l.25 12.8h-5.18l.32-12.35-.32-28.67 12.54-.06q6.02 0 9.31 3.04 3.3 3.04 3.3 8.67 0 4.22-2.21 7.58t-6.24 5.22m-11.52-20.1-.19 17.09 7.68.19q7.17-2.05 7.17-9.53 0-3.91-2.11-5.86-2.12-1.95-6.34-2.08Zm35.58-4.35-.32 28.22.25 12.8h-5.18l.32-12.35-.32-28.67Zm26.56-.32q6.46 0 11.2 3.07l-1.03 4.67-.57.13q-4.29-3.58-9.86-3.58-6.08 0-9.34 4.19-3.27 4.19-3.27 12.26 0 8.12 3.27 12.41 3.26 4.29 9.21 4.29 2.82 0 5.6-1.02 2.79-1.03 5.09-2.88l.64.32-.45 4.86q-5.57 3.07-11.33 3.07-8.25 0-12.8-5.34-4.54-5.35-4.54-15.27 0-10.17 4.74-15.68 4.73-5.5 13.44-5.5m29.76 0q4.41 0 9.15 1.92l-.83 4.93-.9.25q-1.86-1.4-3.94-2.17t-4.12-.77q-2.37 0-4.13.96t-2.69 2.5q-.93 1.53-.93 3.2 0 1.72 1.06 3.04 1.05 1.31 2.65 2.27t4.36 2.3q3.45 1.6 5.56 2.98 2.12 1.37 3.62 3.49 1.5 2.11 1.5 5.12 0 3.2-1.72 5.88-1.73 2.69-4.87 4.29-3.13 1.6-7.17 1.6-2.68 0-5.6-.73-2.91-.74-5.4-2.15l.64-5.25.7-.32q2.24 2.18 4.96 3.24 2.72 1.05 5.22 1.05 2.43 0 4.32-.96 1.88-.96 2.88-2.56.99-1.6.99-3.39 0-2.69-2.05-4.32t-6.21-3.55q-3.39-1.67-5.44-2.98t-3.52-3.39-1.47-5.09q0-3.13 1.7-5.76 1.69-2.62 4.73-4.13 3.04-1.5 6.95-1.5m-452.373 63.568a2.37 2.37 0 0 0-.9-1.627l-51.13-41.428 41.397-51.27a2.37 2.37 0 0 0-.38-3.398L554.982.48a2.417 2.417 0 0 0-3.397.363l-53.5 66.266q-.347.442-.457 1.01a2.37 2.37 0 0 0 .71 2.687l42.17 34.207h-51.001a2.414 2.414 0 0 0-2.402 2.417v17.222a2.4 2.4 0 0 0 2.402 2.402h87.358a2.417 2.417 0 0 0 2.417-2.418v-14.694q.127-.474.08-.948m-63.39-30.083 7.789-9.654 4.835 3.903-3.792 4.74a.695.695 0 0 0 .537 1.122q.316 0 .537-.253l3.792-4.74 2.939 2.37-1.864 2.338a.695.695 0 0 0 .11.964q.206.158.427.158.316 0 .537-.268l1.864-2.307 2.94 2.37-1.85 2.307a.695.695 0 0 0 .538 1.12q.316 0 .537-.267l1.833-2.291 2.939 2.37-3.73 4.677a.695.695 0 0 0 .11.963q.19.158.428.158.316 0 .537-.252l3.729-4.661 2.939 2.37-1.801 2.259a.695.695 0 0 0 1.074.853l1.8-2.243 2.94 2.37-1.785 2.243a.695.695 0 0 0 1.074.853l1.77-2.212 2.938 2.37-3.318 4.172a.695.695 0 0 0 .095.963q.206.158.443.158.316 0 .537-.268l3.318-4.156 2.939 2.37-1.738 2.197a.695.695 0 0 0 .537 1.106q.316 0 .537-.253l1.738-2.165 2.939 2.37-1.738 2.165a.695.695 0 0 0 .11.964q.206.158.427.158.316 0 .553-.27l1.69-2.132 11.835 9.575-7.9 9.638Zm37.856-73.185 9.638 7.789-2.575 3.207-3.27-2.575a.695.695 0 0 0-.964.11.695.695 0 0 0 .11.964l3.255 2.56-2.37 2.955-5.625-4.424a.695.695 0 0 0-.853 1.074l5.609 4.424-2.37 2.939-3.176-2.512a.695.695 0 0 0-.964.126.695.695 0 0 0 .11.948l3.16 2.496-2.37 2.955-3.127-2.465a.695.695 0 0 0-.964.11.695.695 0 0 0 .11.965l3.113 2.464-2.37 2.94-5.498-4.33a.695.695 0 0 0-.964.11.695.695 0 0 0 .11.98l5.483 4.314-2.386 2.938-3.033-2.385a.68.68 0 0 0-.854 1.058l3.034 2.402-2.37 2.939-3.002-2.37a.695.695 0 0 0-.964.126.695.695 0 0 0 .11.964l2.987 2.354-2.386 2.939-4.898-3.871a.695.695 0 0 0-.98.11.695.695 0 0 0 .127.964l4.898 3.87-2.386 2.94-2.891-2.275a.695.695 0 0 0-.964.11.695.695 0 0 0 .11.964l2.876 2.275-2.37 2.94-2.844-2.244a.695.695 0 0 0-.98.11.695.695 0 0 0 .127.964l2.844 2.244-2.386 2.938-4.771-3.76a.695.695 0 0 0-.98.11.695.695 0 0 0 .126.98l4.756 3.745-2.37 2.939-2.765-2.18a.695.695 0 0 0-.964.126.695.695 0 0 0 .11.948l2.75 2.18-2.291 2.844-.063.11-2.733-2.148a.695.695 0 0 0-.964.11.68.68 0 0 0 .11.964l3.145 2.48-.016.222-8.042 9.954-10.08-8.137 9.132-11.25q.284-.347.395-.758Zm-61.904 104.09h54.51l15.279 12.403h-3.287v-2.054a.695.695 0 0 0-1.374 0v2.054h-3.792v-5.103a.695.695 0 0 0-1.375 0v5.103h-3.792v-2.054c0-.363-.3-.68-.68-.68s-.695.317-.695.696v2.038h-3.792v-2.054c0-.363-.3-.68-.68-.68s-.68.317-.68.696v2.038h-3.79v-5.103a.695.695 0 0 0-1.375 0v5.103h-3.792v-2.054c0-.363-.3-.68-.68-.68s-.68.317-.68.696v2.038h-3.791v-2.054a.695.695 0 0 0-1.374 0v2.054h-3.792v-4.55a.695.695 0 1 0-1.375 0v4.55h-3.776v-2.054a.695.695 0 0 0-1.375 0v2.054h-3.792v-2.054a.695.695 0 0 0-.68-.68.7.7 0 0 0-.694.696v2.038h-3.792v-4.55a.695.695 0 0 0-1.375 0v4.55h-3.776v-2.054a.695.695 0 0 0-.68-.68.69.69 0 0 0-.695.696v2.038h-3.792v-2.054c0-.363-.3-.68-.68-.68s-.694.317-.694.696v2.038h-3.208Zm77.53 12.403 5.01-6.115v6.115Z"/><path d="M512.748 62.148a3.91 3.91 0 1 0 0 7.82 3.91 3.91 0 0 0 0-7.82m0 6.43a2.528 2.528 0 1 1 0-5.055 2.528 2.528 0 0 1 0 5.056m56.28 42.138a3.91 3.91 0 1 0-7.821 0 3.91 3.91 0 0 0 7.82 0m-3.902 2.529a2.528 2.528 0 1 1 0-5.056 2.528 2.528 0 0 1 0 5.056"/></g><path fill="transparent" stroke="transparent" d="M469.5 0h561v127h-561z"/></g></svg>